<svg width="46" height="47" viewBox="0 0 46 47" fill="none" xmlns="http://www.w3.org/2000/svg">
<path d="M0 10.3376C0 4.89366 4.41299 0.480469 9.8567 0.480469H36.1412C41.5849 0.480469 45.9979 4.89366 45.9979 10.3376V36.6233C45.9979 42.0673 41.5849 46.4805 36.1412 46.4805H9.8567C4.413 46.4805 0 42.0673 0 36.6233V10.3376Z" fill="#56F58E"/>
<path fill-rule="evenodd" clip-rule="evenodd" d="M30.8084 36.5375H23.4094C22.6083 36.5375 21.958 35.8865 21.958 35.0848C21.958 34.2833 22.6083 33.6323 23.4094 33.6323H28.2426C28.9968 33.5806 29.5934 32.9512 29.5934 32.1835C29.5934 31.3817 28.943 30.731 28.1419 30.731H24.6083V30.7308H20.579C19.779 30.7308 19.1295 30.0809 19.1295 29.2804C19.1295 28.4798 19.779 27.8297 20.579 27.8297H21.4919L21.49 27.8279H22.8473C23.6469 27.8279 24.2962 27.1783 24.2962 26.3781C24.2962 25.578 23.6469 24.9284 22.8473 24.9284H19.4335V24.9271H12.2749C11.4752 24.9271 10.826 24.2774 10.826 23.4771C10.826 22.6769 11.4752 22.027 12.2749 22.027H19.4335V22.0231H22.2365C23.0354 22.0231 23.684 21.374 23.684 20.5745C23.684 19.7749 23.0354 19.1258 22.2365 19.1258H21.5976L21.5977 19.1256H18.621C17.821 19.1256 17.1716 18.4756 17.1716 17.6752C17.1716 16.8745 17.821 16.2245 18.621 16.2245H25.4945C25.5289 16.2245 25.5627 16.2257 25.5963 16.228H28.0533C28.8542 16.228 29.5046 15.5772 29.5046 14.7755C29.5046 13.9739 28.8542 13.3232 28.0533 13.3232H24.4417C23.69 13.2686 23.0964 12.6404 23.0964 11.8745C23.0964 11.0727 23.7467 10.4219 24.5479 10.4219H30.2371C30.2433 10.4219 30.2495 10.4219 30.2562 10.422H36.9642L25.2105 23.267L39.4271 36.5388H30.8469L30.8448 36.5369C30.8328 36.5374 30.8207 36.5375 30.8084 36.5375ZM16.8817 33.6323C17.6801 33.6323 18.3282 34.2809 18.3282 35.0797C18.3282 35.8786 17.6801 36.527 16.8817 36.527H11.5741C10.7759 36.527 10.1278 35.8786 10.1278 35.0797C10.1278 34.2809 10.7759 33.6323 11.5741 33.6323H16.8817ZM14.7805 27.8297C15.5812 27.8297 16.2312 28.4802 16.2312 29.2815C16.2312 30.0826 15.5812 30.7332 14.7805 30.7332C13.9798 30.7332 13.3297 30.0826 13.3297 29.2815C13.3297 28.4802 13.9798 27.8297 14.7805 27.8297ZM7.20067 22.027C8.00144 22.027 8.65146 22.6775 8.65146 23.4789C8.65146 24.2801 8.00144 24.9305 7.20067 24.9305C6.40002 24.9305 5.75 24.2801 5.75 23.4789C5.75 22.6775 6.40002 22.027 7.20067 22.027ZM12.8227 16.2245C13.6233 16.2245 14.2735 16.875 14.2735 17.6763C14.2735 18.4775 13.6233 19.1279 12.8227 19.1279C12.022 19.1279 11.3719 18.4775 11.3719 17.6763C11.3719 16.875 12.022 16.2245 12.8227 16.2245ZM18.0253 10.4219C18.8236 10.4219 19.4716 11.0704 19.4716 11.8692C19.4716 12.6681 18.8236 13.3167 18.0253 13.3167H14.6703C13.8721 13.3167 13.224 12.6681 13.224 11.8692C13.224 11.0704 13.8719 10.4219 14.6703 10.4219H18.0253Z" fill="#0A0A0A"/>
</svg>
