<svg width="46" height="47" viewBox="0 0 46 47" fill="none" xmlns="http://www.w3.org/2000/svg">
<path d="M0 9.85714C0 4.41319 4.41301 0 9.85673 0H36.1413C41.5851 0 45.9981 4.41319 45.9981 9.85714V36.1429C45.9981 41.5868 41.5851 46 36.1413 46H9.85673C4.41301 46 0 41.5868 0 36.1429V9.85714Z" fill="#56F58E"/>
<path d="M22.6704 16.0996C22.2818 16.0987 21.8969 16.1786 21.5378 16.3347C21.1786 16.4908 20.8523 16.72 20.5776 17.0092C20.3028 17.2984 20.085 17.6419 19.9367 18.0199C19.7884 18.3979 19.7125 18.8031 19.7134 19.2121V37.2101C19.7174 37.3613 19.7763 37.5051 19.8779 37.612C19.9795 37.719 20.1162 37.781 20.2598 37.7852V37.7852C21.6826 37.7825 23.0464 37.1864 24.0524 36.1275C25.0585 35.0685 25.6248 33.633 25.6274 32.1355V19.2121C25.6282 18.8031 25.5523 18.3979 25.404 18.0199C25.2557 17.6419 25.0379 17.2984 24.7632 17.0092C24.4884 16.72 24.1621 16.4908 23.803 16.3347C23.4438 16.1786 23.0589 16.0987 22.6704 16.0996V16.0996Z" fill="#0A0A0A"/>
<path d="M12.8139 23.9854C12.4254 23.9844 12.0405 24.0678 11.6813 24.2306C11.3222 24.3935 10.9959 24.6326 10.7211 24.9343C10.4464 25.236 10.2286 25.5943 10.0803 25.9887C9.932 26.3831 9.85609 26.8057 9.85694 27.2324V37.1853C9.86099 37.343 9.91986 37.4931 10.0215 37.6046C10.1231 37.7162 10.2597 37.7808 10.4033 37.7853V37.7853C11.8261 37.7825 13.1899 37.1606 14.196 36.0559C15.202 34.9511 15.7684 33.4535 15.7709 31.8912V27.2324C15.7718 26.8057 15.6959 26.3831 15.5476 25.9887C15.3993 25.5943 15.1815 25.236 14.9067 24.9343C14.632 24.6326 14.3057 24.3935 13.9465 24.2306C13.5874 24.0678 13.2025 23.9844 12.8139 23.9854V23.9854Z" fill="#0A0A0A"/>
<path d="M32.5273 8.21436C32.1388 8.21346 31.7539 8.29392 31.3947 8.45112C31.0356 8.60831 30.7093 8.83915 30.4345 9.13037C30.1598 9.42159 29.942 9.76747 29.7937 10.1481C29.6454 10.5288 29.5695 10.9368 29.5703 11.3486V37.2065C29.5744 37.3587 29.6332 37.5036 29.7348 37.6113C29.8364 37.719 29.9731 37.7813 30.1167 37.7856C31.5395 37.7829 32.9033 37.1827 33.9094 36.1163C34.9154 35.0499 35.4818 33.6043 35.4843 32.0962V11.3486C35.4851 10.9368 35.4092 10.5288 35.2609 10.1481C35.1126 9.76747 34.8949 9.42159 34.6201 9.13037C34.3454 8.83915 34.019 8.60831 33.6599 8.45112C33.3008 8.29392 32.9159 8.21346 32.5273 8.21436V8.21436Z" fill="#0A0A0A"/>
</svg>
