<svg width="198" height="25" viewBox="0 0 198 25" fill="none" xmlns="http://www.w3.org/2000/svg">
<path fill-rule="evenodd" clip-rule="evenodd" d="M0.00146484 17.206C0.00146484 17.3446 0.112541 17.4565 0.250179 17.4565H9.87999C10.0176 17.4565 10.1287 17.3446 10.1287 17.206V15.7221C10.1287 15.5834 10.0176 15.4715 9.87999 15.4715H2.33889V2.70271C2.33889 2.56405 2.22781 2.45215 2.09018 2.45215H0.250179C0.112541 2.45215 0.00146484 2.56405 0.00146484 2.70271V17.206ZM11.5558 5.08181C11.5558 5.22047 11.6669 5.33237 11.8045 5.33237H13.6107C13.7483 5.33237 13.8594 5.22047 13.8594 5.08181V2.96057C13.8594 2.82191 13.7483 2.71001 13.6107 2.71001H11.8045C11.6669 2.71001 11.5558 2.82191 11.5558 2.96057V5.08181ZM11.592 17.206C11.592 17.3446 11.7031 17.4565 11.8407 17.4565H13.6034C13.7411 17.4565 13.8522 17.3446 13.8522 17.206V6.9452C13.8522 6.80654 13.7411 6.69464 13.6034 6.69464H11.8407C11.7031 6.69464 11.592 6.80654 11.592 6.9452V17.206ZM26.1671 6.9452C26.1671 6.80654 26.056 6.69464 25.9184 6.69464H24.2064C24.0687 6.69464 23.9577 6.80654 23.9577 6.9452V7.88419C23.3661 7.12521 22.3133 6.46111 20.594 6.46111C18.8747 6.46111 17.9741 6.93547 17.0758 7.89149C16.1848 8.84751 15.6632 10.2536 15.6632 12.0829C15.6632 13.9122 16.1848 15.3085 17.0758 16.2646C17.9668 17.2206 19.208 17.6949 20.594 17.6949C21.98 17.6949 23.3323 17.0406 23.907 16.3327V21.2466C23.907 21.3852 24.018 21.4971 24.1557 21.4971H25.9184C26.056 21.4971 26.1671 21.3852 26.1671 21.2466V6.9452ZM37.8687 6.9452C37.8687 6.80654 37.7577 6.69464 37.62 6.69464H35.8573C35.7197 6.69464 35.6086 6.80654 35.6086 6.9452V12.8686C35.6086 13.8782 35.2826 14.6007 34.7876 15.075C34.2902 15.5494 33.614 15.7999 32.8607 15.7999C32.1073 15.7999 31.6702 15.6272 31.3201 15.3085C30.9699 14.9899 30.7478 14.4815 30.7478 13.7298V6.94276C30.7478 6.8041 30.6367 6.6922 30.4991 6.6922H28.7364C28.5987 6.6922 28.4876 6.8041 28.4876 6.94276V13.8417C28.4876 15.075 28.874 16.0481 29.5839 16.7049C30.2866 17.3592 31.279 17.6876 32.4333 17.6876C33.5875 17.6876 34.2829 17.4201 34.8383 17.0503C35.1884 16.8168 35.4468 16.5492 35.6424 16.3011V17.206C35.6424 17.3446 35.7535 17.4565 35.8911 17.4565H37.6031C37.7408 17.4565 37.8518 17.3446 37.8518 17.206V6.9452H37.8687ZM40.2738 5.08181C40.2738 5.22047 40.3848 5.33237 40.5225 5.33237H42.3287C42.4663 5.33237 42.5774 5.22047 42.5774 5.08181V2.96057C42.5774 2.82191 42.4663 2.71001 42.3287 2.71001H40.5225C40.3848 2.71001 40.2738 2.82191 40.2738 2.96057V5.08181ZM40.2979 17.206C40.2979 17.3446 40.409 17.4565 40.5466 17.4565H42.3094C42.447 17.4565 42.5581 17.3446 42.5581 17.206V6.9452C42.5581 6.80654 42.447 6.69464 42.3094 6.69464H40.5466C40.409 6.69464 40.2979 6.80654 40.2979 6.9452V17.206ZM54.8754 2.70271C54.8754 2.56405 54.7644 2.45215 54.6267 2.45215H52.864C52.7264 2.45215 52.6153 2.56405 52.6153 2.70271V7.82581C52.043 7.11791 51.024 6.46354 49.3023 6.46354C47.5806 6.46354 46.6824 6.9379 45.7841 7.89392C44.8931 8.84994 44.3715 10.256 44.3715 12.0853C44.3715 13.9147 44.8931 15.311 45.7841 16.267C46.6751 17.223 47.9163 17.6974 49.3023 17.6974C50.6884 17.6974 52.0672 17.0333 52.666 16.2743V17.2133C52.666 17.3519 52.7771 17.4638 52.9147 17.4638H54.6267C54.7644 17.4638 54.8754 17.3519 54.8754 17.2133V2.70271ZM61.6632 3.00435V3.06517L65.1138 17.2668C65.1403 17.3787 65.2417 17.4565 65.3528 17.4565H67.6202C67.7313 17.4565 67.8351 17.3787 67.8593 17.2765L71.008 5.97945L74.1568 17.2765C74.1906 17.3884 74.2848 17.4565 74.3958 17.4565H76.6729C76.784 17.4565 76.8878 17.3787 76.912 17.2668L80.3626 3.06517V2.70271C80.365 2.56405 80.2539 2.45215 80.1163 2.45215H78.3535C78.2328 2.45215 78.1386 2.52999 78.1145 2.64189L75.4173 14.153L72.2419 2.63216C72.2154 2.52026 72.114 2.45215 72.0029 2.45215H70.0591C69.948 2.45215 69.8441 2.52999 69.82 2.63216L66.6278 14.153L63.9305 2.64189C63.9064 2.52999 63.8026 2.45215 63.6915 2.45215H61.9191C61.7815 2.45215 61.6704 2.56405 61.6704 2.70271V3.00435H61.6607H61.6632ZM90.1566 12.7056C90.2942 12.7056 90.4053 12.5937 90.4053 12.4551V11.628C90.4053 10.076 89.9851 8.77453 89.1472 7.85986C88.3093 6.9452 87.0754 6.44651 85.5179 6.44651C83.9605 6.44651 82.6758 6.9379 81.7776 7.90365C80.8793 8.8694 80.3915 10.2828 80.3915 12.0683C80.3915 13.8538 80.8793 15.2769 81.7872 16.2427C82.6952 17.2084 83.987 17.6998 85.5373 17.6998C87.0875 17.6998 88.2248 17.2084 88.9685 16.5273C89.7123 15.8559 90.0721 15.0093 90.1928 14.3379V13.9925C90.1928 13.8538 90.0817 13.7419 89.9441 13.7419H88.3697C88.249 13.7419 88.1475 13.8271 88.121 13.9487C88.0534 14.389 87.8288 14.8634 87.4183 15.2258C87.0078 15.5883 86.3993 15.8559 85.5179 15.8559C84.6366 15.8559 83.8929 15.5275 83.4027 14.9582C82.9487 14.4328 82.6662 13.6641 82.6058 12.6983H90.1542V12.7081L90.1566 12.7056ZM92.2284 17.206C92.2284 17.3446 92.3395 17.4565 92.4771 17.4565H94.1891C94.3268 17.4565 94.4378 17.3446 94.4378 17.206V16.267C95.0294 17.026 96.0822 17.6901 97.7943 17.6901C99.5063 17.6901 100.414 17.2157 101.303 16.2597C102.191 15.3037 102.715 13.8976 102.715 12.078C102.715 10.2584 102.194 8.84507 101.303 7.88662C100.412 6.9306 99.1706 6.45624 97.7943 6.45624C96.4179 6.45624 95.056 7.11062 94.4813 7.81851V2.70271C94.4813 2.56405 94.3702 2.45215 94.2326 2.45215H92.4698C92.3322 2.45215 92.2211 2.56405 92.2211 2.70271V17.206H92.2308H92.2284ZM20.9538 8.35855C21.8617 8.35855 22.6054 8.68695 23.1198 9.29754C23.6413 9.91056 23.9577 10.8423 23.9577 12.0732C23.9577 13.3041 23.6413 14.2285 23.1198 14.8415C22.5982 15.4545 21.8617 15.7805 20.9538 15.7805C20.0459 15.7805 19.3021 15.4521 18.7878 14.8415C18.2662 14.2285 17.9499 13.3065 17.9499 12.0732C17.9499 10.8398 18.2662 9.90813 18.7878 9.29754C19.3094 8.68452 20.0459 8.35855 20.9538 8.35855ZM49.6621 8.35855C50.57 8.35855 51.3138 8.68695 51.8281 9.29754C52.3497 9.91056 52.666 10.8423 52.666 12.0732C52.666 13.3041 52.3497 14.2285 51.8281 14.8415C51.3065 15.4545 50.57 15.7805 49.6621 15.7805C48.7542 15.7805 48.0105 15.4521 47.4961 14.8415C46.9746 14.2285 46.6582 13.3065 46.6582 12.0732C46.6582 10.8398 46.9746 9.90813 47.4961 9.29754C48.0177 8.68452 48.7542 8.35855 49.6621 8.35855ZM88.2152 10.9104H82.6589C82.7628 10.1514 83.0356 9.52134 83.4558 9.08347C83.9267 8.59208 84.6028 8.29044 85.5107 8.29044C86.4186 8.29044 87.0947 8.58478 87.5318 9.06644C87.935 9.50675 88.1644 10.1368 88.2079 10.9128H88.2176L88.2152 10.9104ZM97.4417 15.7926C96.5265 15.7926 95.7901 15.4642 95.2685 14.8536C94.7469 14.2406 94.4306 13.3187 94.4306 12.0853C94.4306 10.852 94.7469 9.92029 95.2685 9.3097C95.7901 8.69668 96.5362 8.37071 97.4417 8.37071C98.3472 8.37071 99.0934 8.69912 99.6077 9.3097C100.129 9.92272 100.446 10.8544 100.446 12.0853C100.446 13.3162 100.129 14.2406 99.6077 14.8536C99.0861 15.4667 98.3496 15.7926 97.4417 15.7926Z" fill="#041C1E"/>
<path d="M77.0098 21.0986L78.6277 23.8061H78.7484V21.0986H79.4076V24.7549H78.4055L76.7877 22.0474H76.6669V24.7549H76.0005V21.0986H77.0098Z" fill="#041C1E"/>
<path d="M83.0777 21.0986V21.6849H80.8876V22.6069H82.8145V23.1761H80.8876V24.1686H83.1042V24.7549H80.168V21.0986H83.0777Z" fill="#041C1E"/>
<path d="M84.37 21.0986L85.3021 22.4001H85.5242L86.4394 21.0986H87.2L85.942 22.9012L87.2773 24.7549H86.4466L85.4614 23.3999H85.2296L84.2806 24.7549H83.52L84.8215 22.9012L83.5297 21.0986H84.3676H84.37Z" fill="#041C1E"/>
<path d="M89.3613 21.0474C90.3875 21.0474 91.0637 21.5387 91.0637 22.4777V22.5288H90.3441V22.4777C90.3441 21.9426 89.9843 21.675 89.3589 21.675H89.2309C88.6152 21.675 88.2385 21.9693 88.2385 22.5896V23.2537C88.2385 23.9008 88.6152 24.1854 89.2309 24.1854H89.3589C89.9843 24.1854 90.3513 23.9178 90.3513 23.3754V23.3413H91.0709V23.3754C91.0709 24.3314 90.3779 24.8155 89.3516 24.8155H89.2237C88.2216 24.8155 87.5044 24.3241 87.5044 23.2635V22.5994C87.5044 21.5655 88.2143 21.0547 89.2237 21.0547H89.3516L89.3613 21.0449V21.0474Z" fill="#041C1E"/>
<path d="M94.6929 21.0986V21.6849H92.5028V22.6069H94.4297V23.1761H92.5028V24.1686H94.7195V24.7549H91.7832V21.0986H94.6929Z" fill="#041C1E"/>
<path d="M96.9696 21.0566C97.8847 21.0566 98.5101 21.4532 98.5101 22.1781V22.4116H97.8075V22.1781C97.8075 21.8083 97.4815 21.6259 96.9599 21.6259H96.8657C96.3345 21.6259 96.0278 21.8059 96.0278 22.0832V22.1343C96.0278 22.4457 96.2934 22.5138 97.1579 22.6695C98.1262 22.8495 98.5705 23.1268 98.5705 23.7398V23.8006C98.5705 24.4039 98.032 24.8272 96.9792 24.8272H96.885C95.8226 24.8272 95.2769 24.3966 95.2769 23.662V23.4284H95.9795V23.662C95.9795 24.1023 96.2959 24.2653 96.8947 24.2653H96.9792C97.5612 24.2653 97.8702 24.1096 97.8702 23.8177V23.7666C97.8702 23.4722 97.5877 23.3603 96.7329 23.2144C95.8346 23.0587 95.3372 22.8179 95.3372 22.1805V22.1124C95.3372 21.4653 95.9288 21.0785 96.8778 21.0785H96.972V21.0615L96.9696 21.0566Z" fill="#041C1E"/>
<path d="M100.811 21.0479C101.727 21.0479 102.352 21.4444 102.352 22.1693V22.4028H101.649V22.1693C101.649 21.7995 101.323 21.6171 100.802 21.6171H100.708C100.176 21.6171 99.8696 21.7971 99.8696 22.0744V22.1255C99.8696 22.4369 100.135 22.505 101 22.6607C101.968 22.8407 102.412 23.118 102.412 23.731V23.7918C102.412 24.3951 101.874 24.8184 100.821 24.8184H100.727C99.6644 24.8184 99.1187 24.3878 99.1187 23.6532V23.4197H99.8213V23.6532C99.8213 24.0935 100.138 24.2565 100.736 24.2565H100.821C101.403 24.2565 101.712 24.1008 101.712 23.8089V23.7578C101.712 23.4634 101.43 23.3515 100.575 23.2056C99.6764 23.0499 99.179 22.8091 99.179 22.1717V22.1036C99.179 21.4565 99.7706 21.0697 100.72 21.0697H100.814V21.0527L100.811 21.0479Z" fill="#041C1E"/>
<path d="M68.3281 24.8079V21.1006H69.6465C70.0909 21.1006 70.4265 21.1784 70.6486 21.3414C70.8708 21.5044 70.9819 21.755 70.9819 22.1004C70.9819 22.4458 70.9481 22.3947 70.8877 22.5139C70.8201 22.6356 70.7259 22.7304 70.5955 22.7888C70.4675 22.8569 70.3227 22.8934 70.1512 22.8934V22.8764C70.4603 22.8764 70.7066 22.9713 70.878 23.1343C71.0495 23.2972 71.1437 23.5137 71.1437 23.7813C71.1437 24.0489 71.0326 24.3773 70.8104 24.5403C70.5883 24.713 70.2623 24.7982 69.8518 24.7982H68.3378L68.3281 24.8079ZM68.8932 22.6867H69.6465C69.8953 22.6867 70.0836 22.6429 70.2188 22.548C70.3541 22.4531 70.4241 22.3242 70.4241 22.1515C70.4241 21.9788 70.3565 21.8328 70.2261 21.7452C70.0957 21.6577 69.9001 21.6163 69.6441 21.6163H68.8907V22.694V22.6842L68.8932 22.6867ZM68.8932 24.2995H69.8349C70.0667 24.2995 70.2454 24.2484 70.3734 24.1535C70.5014 24.0587 70.5714 23.92 70.5714 23.7302C70.5714 23.5405 70.5038 23.4116 70.3734 23.307C70.243 23.2024 70.0643 23.1513 69.8349 23.1513H68.8932V24.297V24.2995Z" fill="#041C1E"/>
<path d="M72.4823 24.8079V23.3167L71.1904 21.1006H71.8327L72.7576 22.7572L73.6896 21.1006H74.3319L73.0401 23.3167V24.8079H72.4847H72.4823Z" fill="#041C1E"/>
<path d="M184.943 17.6644C183.911 17.6644 183.035 17.4267 182.315 16.9513C181.595 16.4623 181.038 15.7968 180.644 14.9546C180.264 14.0989 180.074 13.1209 180.074 12.0207C180.074 10.9205 180.264 9.94928 180.644 9.10714C181.025 8.25141 181.568 7.58584 182.274 7.11044C182.994 6.62145 183.857 6.37695 184.862 6.37695C185.826 6.37695 186.661 6.60786 187.368 7.06969C188.074 7.53151 188.611 8.18349 188.977 9.02564C189.358 9.86779 189.548 10.8526 189.548 11.9799V12.4078H181.48C181.534 13.6846 181.867 14.6694 182.478 15.3621C183.089 16.0413 183.911 16.3808 184.943 16.3808C185.731 16.3808 186.376 16.1907 186.879 15.8104C187.381 15.43 187.728 14.9275 187.918 14.3026L189.365 14.4045C189.093 15.3553 188.57 16.1363 187.796 16.7476C187.021 17.3588 186.071 17.6644 184.943 17.6644ZM181.48 11.2057H188.081C188.013 10.0512 187.694 9.17505 187.123 8.5774C186.553 7.96617 185.799 7.66055 184.862 7.66055C183.925 7.66055 183.157 7.96617 182.559 8.5774C181.962 9.18864 181.602 10.0647 181.48 11.2057Z" fill="#041C1E"/>
<path d="M174.345 17.4196V6.62109H175.507L175.588 9.5754L175.405 9.47353C175.581 8.50913 175.9 7.79602 176.362 7.3342C176.824 6.8588 177.463 6.62109 178.277 6.62109H179.215V7.92506H178.237C177.693 7.92506 177.232 8.04731 176.851 8.2918C176.471 8.52271 176.179 8.8555 175.975 9.29015C175.785 9.72481 175.69 10.241 175.69 10.8386V17.4196H174.345Z" fill="#041C1E"/>
<path d="M166.339 17.6644C165.252 17.6644 164.383 17.4064 163.731 16.8902C163.079 16.3605 162.753 15.6474 162.753 14.7509C162.753 13.8544 163.038 13.1481 163.609 12.6319C164.179 12.1158 165.014 11.7558 166.115 11.5521L170.108 10.7982C170.108 9.72516 169.877 8.93735 169.415 8.43478C168.954 7.91863 168.254 7.66055 167.317 7.66055C166.488 7.66055 165.829 7.8575 165.34 8.25141C164.852 8.64532 164.526 9.20222 164.363 9.92212L162.936 9.79987C163.14 8.75398 163.615 7.92542 164.363 7.31418C165.123 6.68936 166.108 6.37695 167.317 6.37695C168.662 6.37695 169.687 6.75728 170.393 7.51793C171.1 8.27857 171.453 9.36522 171.453 10.7778V15.2806C171.453 15.6474 171.507 15.8986 171.616 16.0345C171.738 16.1567 171.928 16.2178 172.186 16.2178H172.512V17.4199C172.458 17.4335 172.376 17.4403 172.268 17.4403C172.173 17.4539 172.071 17.4607 171.962 17.4607C171.541 17.4607 171.188 17.386 170.903 17.2366C170.631 17.0872 170.427 16.8427 170.291 16.5031C170.169 16.1635 170.108 15.6949 170.108 15.0972L170.271 15.1176C170.149 15.593 169.898 16.0277 169.517 16.4216C169.151 16.8019 168.689 17.1075 168.132 17.3384C167.575 17.5558 166.977 17.6644 166.339 17.6644ZM166.461 16.4623C167.208 16.4623 167.853 16.3129 168.397 16.0141C168.94 15.7153 169.361 15.3146 169.66 14.812C169.959 14.2958 170.108 13.7186 170.108 13.0802V12.0003L166.4 12.6931C165.626 12.8425 165.055 13.0734 164.689 13.3858C164.335 13.6982 164.159 14.1125 164.159 14.6286C164.159 15.2127 164.363 15.6677 164.77 15.9937C165.177 16.3061 165.741 16.4623 166.461 16.4623Z" fill="#041C1E"/>
<path d="M149.974 17.4196L146.531 6.62109H147.998L150.789 16.0137L153.54 6.62109H154.966L157.716 16.0137L160.528 6.62109H161.995L158.552 17.4196H156.881L154.253 8.65855L151.645 17.4196H149.974Z" fill="#041C1E"/>
<path d="M144.205 17.4197C143.322 17.4197 142.67 17.2159 142.249 16.8084C141.828 16.3873 141.617 15.7489 141.617 14.8932V4.09473H142.962V14.8525C142.962 15.355 143.071 15.7082 143.288 15.9119C143.519 16.1157 143.865 16.2176 144.327 16.2176H145.753V17.4197H144.205ZM139.926 7.82326V6.62117H145.753V7.82326H139.926Z" fill="#041C1E"/>
<path d="M134.796 17.419V5.49994C134.796 4.72571 135.013 4.10768 135.448 3.64586C135.882 3.18404 136.555 2.95312 137.465 2.95312H139.013V4.15522H137.567C137.078 4.15522 136.718 4.28426 136.487 4.54234C136.256 4.78683 136.14 5.13999 136.14 5.60181V17.419H134.796ZM133.268 7.82263V6.62054H138.911V7.82263H133.268Z" fill="#041C1E"/>
<path d="M127.09 17.6644C126.113 17.6644 125.257 17.4335 124.523 16.9717C123.803 16.5099 123.246 15.8579 122.853 15.0157C122.459 14.16 122.262 13.1617 122.262 12.0207C122.262 10.8661 122.459 9.86779 122.853 9.02564C123.246 8.18349 123.803 7.53151 124.523 7.06969C125.257 6.60786 126.113 6.37695 127.09 6.37695C128.068 6.37695 128.917 6.60786 129.637 7.06969C130.357 7.53151 130.914 8.18349 131.308 9.02564C131.702 9.86779 131.899 10.8661 131.899 12.0207C131.899 13.1617 131.702 14.16 131.308 15.0157C130.914 15.8579 130.357 16.5099 129.637 16.9717C128.917 17.4335 128.068 17.6644 127.09 17.6644ZM127.09 16.3808C128.15 16.3808 128.979 15.9937 129.576 15.2195C130.187 14.4317 130.493 13.3654 130.493 12.0207C130.493 10.676 130.187 9.6165 129.576 8.84227C128.979 8.05446 128.15 7.66055 127.09 7.66055C126.031 7.66055 125.196 8.05446 124.584 8.84227C123.973 9.6165 123.668 10.676 123.668 12.0207C123.668 13.3654 123.973 14.4317 124.584 15.2195C125.196 15.9937 126.031 16.3808 127.09 16.3808Z" fill="#041C1E"/>
<path d="M115.101 17.7458C114.028 17.7458 113.077 17.5353 112.248 17.1142C111.433 16.6931 110.788 16.1159 110.313 15.3824C109.837 14.6353 109.572 13.7932 109.518 12.8559L110.965 12.7541C111.019 13.474 111.223 14.1124 111.576 14.6693C111.929 15.2126 112.404 15.6337 113.002 15.9325C113.6 16.2313 114.313 16.3807 115.141 16.3807C115.861 16.3807 116.486 16.2788 117.016 16.0751C117.546 15.8714 117.953 15.5725 118.238 15.1786C118.524 14.7847 118.666 14.3093 118.666 13.7524C118.666 13.277 118.558 12.8559 118.34 12.4892C118.123 12.1224 117.702 11.7829 117.077 11.4705C116.452 11.1581 115.542 10.8592 114.347 10.574C113.247 10.3023 112.364 10.0035 111.698 9.67751C111.046 9.35152 110.571 8.95082 110.272 8.47541C109.973 7.98642 109.824 7.37519 109.824 6.64171C109.824 5.86748 110.014 5.18153 110.394 4.58388C110.774 3.97265 111.318 3.49724 112.024 3.15767C112.744 2.80451 113.6 2.62793 114.591 2.62793C115.651 2.62793 116.554 2.83847 117.301 3.25954C118.048 3.66703 118.632 4.21714 119.053 4.90987C119.474 5.58902 119.719 6.34288 119.787 7.17144L118.34 7.27332C118.286 6.66208 118.109 6.10518 117.81 5.60261C117.512 5.10004 117.091 4.70613 116.547 4.42089C116.004 4.13564 115.338 3.99302 114.551 3.99302C113.532 3.99302 112.73 4.23752 112.146 4.7265C111.562 5.20191 111.27 5.82673 111.27 6.60096C111.27 7.08995 111.379 7.49744 111.596 7.82343C111.814 8.13584 112.201 8.41429 112.758 8.65878C113.315 8.88969 114.109 9.13419 115.141 9.39227C116.418 9.69109 117.417 10.051 118.136 10.4721C118.87 10.8796 119.386 11.3482 119.685 11.878C119.984 12.4077 120.133 13.0121 120.133 13.6913C120.133 14.5199 119.909 15.2397 119.461 15.851C119.026 16.4622 118.429 16.9308 117.668 17.2568C116.921 17.5828 116.065 17.7458 115.101 17.7458Z" fill="#041C1E"/>
</svg>
