<svg width="46" height="46" viewBox="0 0 46 46" fill="none" xmlns="http://www.w3.org/2000/svg">
<path d="M0 9.85714C0 4.41319 4.41319 0 9.85714 0H36.1428C41.5868 0 46 4.41319 46 9.85714V36.1429C46 41.5868 41.5868 46 36.1428 46H9.85714C4.41319 46 0 41.5868 0 36.1429V9.85714Z" fill="#56F58E"/>
<mask id="path-2-outside-1_385_6523" maskUnits="userSpaceOnUse" x="8.03564" y="4.75" width="30" height="37" fill="black">
<rect fill="white" x="8.03564" y="4.75" width="30" height="37"/>
<path fill-rule="evenodd" clip-rule="evenodd" d="M24.3747 28.4571C23.2408 28.9171 22.1914 29.1653 21.4285 29.1241C20.4402 29.0691 20.0183 28.6332 20.0167 28.4693C20.016 28.3526 20.3844 27.987 21.5218 27.9043C21.7002 27.8916 21.8884 27.8835 22.0823 27.8835C22.8594 27.8835 23.7244 28.0113 24.3747 28.4571M26.4958 38.4792C22.338 39.626 17.9444 38.5683 15.3008 35.7822C13.4301 33.8108 12.803 31.3436 13.5796 29.0134C15.142 24.3252 22.6298 21.5111 27.4152 21.5111C27.4667 21.5111 27.518 21.5114 27.5687 21.5121C29.3519 21.535 30.5868 21.9661 30.7915 22.6377C30.9062 23.0134 30.635 23.6713 30.0659 24.397C29.0616 25.6775 27.5358 26.838 25.9837 27.6892C24.9998 26.6097 23.4214 26.1185 21.4028 26.2638C19.1556 26.427 18.3635 27.5175 18.3716 28.4836C18.3805 29.5371 19.402 30.6598 21.3371 30.7674C22.5083 30.8313 23.9081 30.4705 25.3137 29.8555C25.5199 30.6649 25.456 31.7267 25.1186 32.9928C25.0016 33.4315 25.2624 33.8826 25.7014 33.9995C26.1398 34.1165 26.5909 33.8557 26.7081 33.4165C27.1668 31.6963 27.2008 30.2533 26.8116 29.107C28.6468 28.0772 30.3432 26.7091 31.3603 25.4123C32.3148 24.1952 32.6528 23.1002 32.3653 22.1574C32.1565 21.4728 31.6648 20.9299 30.9239 20.5447C30.9805 14.3631 32.0763 10.0932 33.0628 10.0873H33.0689C33.2138 10.0873 33.4099 10.1198 33.6502 10.3586C34.4517 11.1553 35.4067 13.7706 35.4067 21.7068C35.4067 29.5373 34.7364 36.2044 26.4958 38.4792M18.6469 20.2154C18.6458 20.1949 18.6484 20.1746 18.6458 20.1538C18.6423 20.1241 18.6387 20.0926 18.6349 20.0622C18.5167 18.3742 18.7192 17.0439 19.234 16.3304C19.4897 15.9762 19.8104 15.7865 20.2435 15.7332C20.8474 15.6604 21.3386 15.8161 21.7511 16.2125C22.5501 16.9805 23.0164 18.6411 22.972 20.4577C21.6022 20.7957 20.1996 21.277 18.8671 21.8966C18.762 21.3069 18.6895 20.7452 18.6469 20.2154M25.7333 17.3492C26.0362 17.0196 26.4226 16.8592 26.9156 16.8592C27.6991 16.8592 28.0396 17.1155 28.2279 17.3083C28.678 17.7693 28.9205 18.6635 28.9538 19.9655C28.5323 19.9072 28.0779 19.8732 27.5898 19.8671C27.5342 19.8663 27.4789 19.8661 27.4228 19.8661C26.6802 19.8661 25.8708 19.9305 25.0259 20.0533C24.9894 18.8601 25.2388 17.8878 25.7333 17.3492M34.8103 9.19152C34.3168 8.70083 33.7145 8.44178 33.0675 8.44178H33.053C30.8855 8.45472 30.1378 11.6886 29.7635 14.1201C29.6539 14.8335 29.5692 15.5617 29.5032 16.2665C29.471 16.2305 29.4393 16.1932 29.4055 16.1587C28.7936 15.5318 27.9558 15.2138 26.9158 15.2138C25.9636 15.2138 25.1357 15.567 24.5217 16.2358C24.3466 16.4266 24.1961 16.6476 24.0602 16.8846C23.7889 16.1709 23.4096 15.5247 22.8913 15.0261C22.121 14.286 21.1368 13.9655 20.0427 14.1C19.1611 14.2083 18.4199 14.6463 17.8996 15.3673C17.8975 15.3706 17.8958 15.3742 17.8935 15.377C16.992 10.8811 15.2781 5.45218 12.2878 5.76274C11.552 5.84012 10.9017 6.23618 10.4077 6.90753C8.10086 10.0435 9.18323 19.3688 10.1862 24.3843C10.2646 24.7753 10.6079 25.046 10.992 25.046C11.0455 25.046 11.0998 25.0407 11.1544 25.0298C11.5997 24.9407 11.8887 24.5074 11.7996 24.0619C10.12 15.6637 10.4947 9.56576 11.7331 7.88258C12.0241 7.48703 12.2873 7.417 12.46 7.39898C14.1107 7.22722 16.1443 12.9948 17.0027 20.2743C17.0714 21.1758 17.2079 22.0199 17.3396 22.676C17.3401 22.6791 17.3416 22.6819 17.3421 22.6849C14.8701 24.1098 12.8302 26.0581 12.0188 28.4931C11.0435 31.4182 11.8049 34.488 14.1074 36.9146C16.3554 39.2833 19.6721 40.5786 23.1536 40.5786C24.4062 40.5783 25.6807 40.4106 26.9335 40.0648C36.2783 37.4855 37.0522 29.9091 37.0522 21.7066C37.0522 14.6886 36.3397 10.7121 34.8103 9.19152"/>
</mask>
<path fill-rule="evenodd" clip-rule="evenodd" d="M24.3747 28.4571C23.2408 28.9171 22.1914 29.1653 21.4285 29.1241C20.4402 29.0691 20.0183 28.6332 20.0167 28.4693C20.016 28.3526 20.3844 27.987 21.5218 27.9043C21.7002 27.8916 21.8884 27.8835 22.0823 27.8835C22.8594 27.8835 23.7244 28.0113 24.3747 28.4571M26.4958 38.4792C22.338 39.626 17.9444 38.5683 15.3008 35.7822C13.4301 33.8108 12.803 31.3436 13.5796 29.0134C15.142 24.3252 22.6298 21.5111 27.4152 21.5111C27.4667 21.5111 27.518 21.5114 27.5687 21.5121C29.3519 21.535 30.5868 21.9661 30.7915 22.6377C30.9062 23.0134 30.635 23.6713 30.0659 24.397C29.0616 25.6775 27.5358 26.838 25.9837 27.6892C24.9998 26.6097 23.4214 26.1185 21.4028 26.2638C19.1556 26.427 18.3635 27.5175 18.3716 28.4836C18.3805 29.5371 19.402 30.6598 21.3371 30.7674C22.5083 30.8313 23.9081 30.4705 25.3137 29.8555C25.5199 30.6649 25.456 31.7267 25.1186 32.9928C25.0016 33.4315 25.2624 33.8826 25.7014 33.9995C26.1398 34.1165 26.5909 33.8557 26.7081 33.4165C27.1668 31.6963 27.2008 30.2533 26.8116 29.107C28.6468 28.0772 30.3432 26.7091 31.3603 25.4123C32.3148 24.1952 32.6528 23.1002 32.3653 22.1574C32.1565 21.4728 31.6648 20.9299 30.9239 20.5447C30.9805 14.3631 32.0763 10.0932 33.0628 10.0873H33.0689C33.2138 10.0873 33.4099 10.1198 33.6502 10.3586C34.4517 11.1553 35.4067 13.7706 35.4067 21.7068C35.4067 29.5373 34.7364 36.2044 26.4958 38.4792M18.6469 20.2154C18.6458 20.1949 18.6484 20.1746 18.6458 20.1538C18.6423 20.1241 18.6387 20.0926 18.6349 20.0622C18.5167 18.3742 18.7192 17.0439 19.234 16.3304C19.4897 15.9762 19.8104 15.7865 20.2435 15.7332C20.8474 15.6604 21.3386 15.8161 21.7511 16.2125C22.5501 16.9805 23.0164 18.6411 22.972 20.4577C21.6022 20.7957 20.1996 21.277 18.8671 21.8966C18.762 21.3069 18.6895 20.7452 18.6469 20.2154M25.7333 17.3492C26.0362 17.0196 26.4226 16.8592 26.9156 16.8592C27.6991 16.8592 28.0396 17.1155 28.2279 17.3083C28.678 17.7693 28.9205 18.6635 28.9538 19.9655C28.5323 19.9072 28.0779 19.8732 27.5898 19.8671C27.5342 19.8663 27.4789 19.8661 27.4228 19.8661C26.6802 19.8661 25.8708 19.9305 25.0259 20.0533C24.9894 18.8601 25.2388 17.8878 25.7333 17.3492M34.8103 9.19152C34.3168 8.70083 33.7145 8.44178 33.0675 8.44178H33.053C30.8855 8.45472 30.1378 11.6886 29.7635 14.1201C29.6539 14.8335 29.5692 15.5617 29.5032 16.2665C29.471 16.2305 29.4393 16.1932 29.4055 16.1587C28.7936 15.5318 27.9558 15.2138 26.9158 15.2138C25.9636 15.2138 25.1357 15.567 24.5217 16.2358C24.3466 16.4266 24.1961 16.6476 24.0602 16.8846C23.7889 16.1709 23.4096 15.5247 22.8913 15.0261C22.121 14.286 21.1368 13.9655 20.0427 14.1C19.1611 14.2083 18.4199 14.6463 17.8996 15.3673C17.8975 15.3706 17.8958 15.3742 17.8935 15.377C16.992 10.8811 15.2781 5.45218 12.2878 5.76274C11.552 5.84012 10.9017 6.23618 10.4077 6.90753C8.10086 10.0435 9.18323 19.3688 10.1862 24.3843C10.2646 24.7753 10.6079 25.046 10.992 25.046C11.0455 25.046 11.0998 25.0407 11.1544 25.0298C11.5997 24.9407 11.8887 24.5074 11.7996 24.0619C10.12 15.6637 10.4947 9.56576 11.7331 7.88258C12.0241 7.48703 12.2873 7.417 12.46 7.39898C14.1107 7.22722 16.1443 12.9948 17.0027 20.2743C17.0714 21.1758 17.2079 22.0199 17.3396 22.676C17.3401 22.6791 17.3416 22.6819 17.3421 22.6849C14.8701 24.1098 12.8302 26.0581 12.0188 28.4931C11.0435 31.4182 11.8049 34.488 14.1074 36.9146C16.3554 39.2833 19.6721 40.5786 23.1536 40.5786C24.4062 40.5783 25.6807 40.4106 26.9335 40.0648C36.2783 37.4855 37.0522 29.9091 37.0522 21.7066C37.0522 14.6886 36.3397 10.7121 34.8103 9.19152" fill="#0A0A0A"/>
<path d="M21.4285 29.1241L21.4145 29.3738L21.415 29.3738L21.4285 29.1241ZM20.0167 28.4693L19.7668 28.4709L19.7668 28.4716L20.0167 28.4693ZM21.5218 27.9043L21.5041 27.6549L21.5037 27.6549L21.5218 27.9043ZM15.3008 35.7822L15.4822 35.6101L15.4822 35.6101L15.3008 35.7822ZM13.5796 29.0134L13.8168 29.0925L13.8168 29.0925L13.5796 29.0134ZM27.5687 21.5121L27.565 21.7621L27.5655 21.7621L27.5687 21.5121ZM30.7915 22.6377L30.5524 22.7106L30.5524 22.7106L30.7915 22.6377ZM30.0659 24.397L29.8691 24.2427L29.8691 24.2427L30.0659 24.397ZM25.9837 27.6892L25.799 27.8576L25.9315 28.003L26.104 27.9084L25.9837 27.6892ZM21.4028 26.2638L21.3849 26.0145L21.3847 26.0145L21.4028 26.2638ZM18.3716 28.4836L18.1216 28.4857V28.4857L18.3716 28.4836ZM21.3371 30.7674L21.3232 31.017L21.3235 31.017L21.3371 30.7674ZM25.3137 29.8555L25.5559 29.7938L25.4832 29.5084L25.2135 29.6265L25.3137 29.8555ZM25.1186 32.9928L25.3601 33.0572L25.3601 33.0572L25.1186 32.9928ZM25.7014 33.9995L25.7658 33.758L25.7657 33.758L25.7014 33.9995ZM26.7081 33.4165L26.9497 33.4809L26.9497 33.4809L26.7081 33.4165ZM26.8116 29.107L26.6893 28.889L26.5081 28.9907L26.5749 29.1874L26.8116 29.107ZM31.3603 25.4123L31.5571 25.5666L31.5571 25.5666L31.3603 25.4123ZM32.3653 22.1574L32.6045 22.0844L32.6045 22.0844L32.3653 22.1574ZM30.924 20.5447L30.674 20.5424L30.6726 20.6958L30.8086 20.7665L30.924 20.5447ZM33.0628 10.0873V9.83735L33.0613 9.83735L33.0628 10.0873ZM33.6502 10.3586L33.8264 10.1813L33.8264 10.1812L33.6502 10.3586ZM18.6458 20.1538L18.3976 20.1835L18.3977 20.184L18.6458 20.1538ZM18.6349 20.0622L18.3852 20.0797L18.3869 20.0932L18.6349 20.0622ZM19.234 16.3304L19.0313 16.1841L19.0312 16.1842L19.234 16.3304ZM20.2435 15.7332L20.2136 15.485L20.213 15.4851L20.2435 15.7332ZM21.7511 16.2125L21.9244 16.0322L21.9243 16.0322L21.7511 16.2125ZM22.972 20.4577L23.0319 20.7004L23.2173 20.6547L23.222 20.4638L22.972 20.4577ZM18.8671 21.8966L18.621 21.9404L18.6779 22.2602L18.9725 22.1233L18.8671 21.8966ZM28.2279 17.3083L28.049 17.483L28.049 17.483L28.2279 17.3083ZM28.9538 19.9655L28.9195 20.2132L29.2112 20.2536L29.2037 19.9592L28.9538 19.9655ZM27.5898 19.8671L27.5863 20.1171L27.5866 20.1171L27.5898 19.8671ZM25.0259 20.0533L24.776 20.061L24.7846 20.341L25.0619 20.3007L25.0259 20.0533ZM33.053 8.44178V8.19177L33.0515 8.19178L33.053 8.44178ZM29.7635 14.1201L29.5165 14.082L29.5164 14.0821L29.7635 14.1201ZM29.5032 16.2665L29.3169 16.4332L29.6988 16.8602L29.7521 16.2898L29.5032 16.2665ZM29.4055 16.1587L29.2266 16.3333L29.2268 16.3335L29.4055 16.1587ZM24.5217 16.2358L24.3375 16.0668L24.3375 16.0668L24.5217 16.2358ZM24.0602 16.8846L23.8265 16.9734L24.0141 17.4671L24.277 17.009L24.0602 16.8846ZM22.8913 15.0261L23.0646 14.8459L23.0645 14.8458L22.8913 15.0261ZM20.0427 14.1L20.0732 14.3481L20.0732 14.3481L20.0427 14.1ZM17.8996 15.3673L17.6968 15.221L17.6915 15.2285L17.6866 15.2363L17.8996 15.3673ZM17.8935 15.377L17.6483 15.4261L17.7523 15.9444L18.087 15.5353L17.8935 15.377ZM12.2878 5.76274L12.2619 5.51408L12.2616 5.51411L12.2878 5.76274ZM10.4077 6.90753L10.2063 6.75936L10.2063 6.75939L10.4077 6.90753ZM10.1862 24.3843L9.94104 24.4334L9.94107 24.4335L10.1862 24.3843ZM11.1544 25.0298L11.1054 24.7847L11.1544 25.0298ZM11.7996 24.0619L12.0448 24.0129L12.0447 24.0128L11.7996 24.0619ZM11.7331 7.88258L11.9345 8.03073L11.9345 8.03073L11.7331 7.88258ZM12.46 7.39898L12.4342 7.15033L12.4341 7.15033L12.46 7.39898ZM17.0027 20.2743L17.2521 20.2553L17.2509 20.245L17.0027 20.2743ZM17.3396 22.676L17.5863 22.6349L17.5847 22.6268L17.3396 22.676ZM17.3421 22.6849L17.467 22.9015L17.6172 22.8149L17.5887 22.6438L17.3421 22.6849ZM12.0188 28.4931L12.256 28.5722L12.256 28.5721L12.0188 28.4931ZM14.1074 36.9146L13.9261 37.0867L13.9261 37.0867L14.1074 36.9146ZM23.1536 40.5786V40.8286H23.1537L23.1536 40.5786ZM26.9335 40.0648L26.867 39.8238V39.8238L26.9335 40.0648ZM24.3747 28.4571L24.2807 28.2255C23.1596 28.6803 22.1506 28.9127 21.4419 28.8745L21.4285 29.1241L21.415 29.3738C22.2322 29.4178 23.322 29.154 24.4686 28.6888L24.3747 28.4571ZM21.4285 29.1241L21.4424 28.8745C20.9824 28.8489 20.6701 28.7355 20.4804 28.6227C20.3848 28.5658 20.3236 28.5111 20.2893 28.4708C20.2462 28.4204 20.2663 28.419 20.2667 28.467L20.0167 28.4693L19.7668 28.4716C19.768 28.6015 19.8413 28.7161 19.9087 28.7952C19.9849 28.8845 20.0911 28.9729 20.2248 29.0524C20.4934 29.2122 20.8863 29.3443 21.4145 29.3738L21.4285 29.1241ZM20.0167 28.4693L20.2667 28.4677C20.2669 28.4927 20.2622 28.5112 20.259 28.5213C20.2556 28.5317 20.2523 28.5377 20.2515 28.5392C20.25 28.5417 20.2536 28.535 20.268 28.5206C20.2968 28.492 20.3544 28.4472 20.4537 28.3979C20.6514 28.2997 20.9942 28.1933 21.54 28.1536L21.5218 27.9043L21.5037 27.6549C20.912 27.6979 20.5019 27.8157 20.2312 27.9501C20.0963 28.0171 19.9909 28.0909 19.9152 28.1662C19.8775 28.2038 19.8435 28.2454 19.8176 28.2906C19.7938 28.3322 19.7663 28.3952 19.7668 28.4709L20.0167 28.4693ZM21.5218 27.9043L21.5396 28.1536C21.7131 28.1413 21.8954 28.1335 22.0823 28.1335V27.8835V27.6335C21.8815 27.6335 21.6873 27.6419 21.5041 27.6549L21.5218 27.9043ZM22.0823 27.8835V28.1335C22.8413 28.1335 23.6451 28.2601 24.2333 28.6633L24.3747 28.4571L24.516 28.2509C23.8037 27.7626 22.8776 27.6335 22.0823 27.6335V27.8835ZM26.4958 38.4792L26.4293 38.2382C22.3471 39.3642 18.0531 38.3197 15.4822 35.6101L15.3008 35.7822L15.1195 35.9543C17.8356 38.8169 22.329 39.8879 26.5622 38.7202L26.4958 38.4792ZM15.3008 35.7822L15.4822 35.6101C13.6668 33.6969 13.0729 31.3242 13.8168 29.0925L13.5796 29.0134L13.3424 28.9344C12.533 31.363 13.1935 33.9246 15.1195 35.9543L15.3008 35.7822ZM13.5796 29.0134L13.8168 29.0925C14.5664 26.8432 16.7555 25.0075 19.3977 23.7292C22.0326 22.4544 25.0639 21.7611 27.4152 21.7611V21.5111V21.2611C24.9811 21.2611 21.8758 21.9749 19.1799 23.2791C16.4912 24.5799 14.1552 26.4954 13.3424 28.9344L13.5796 29.0134ZM27.4152 21.5111V21.7611C27.466 21.7611 27.5159 21.7614 27.565 21.7621L27.5687 21.5121L27.5725 21.2622C27.5201 21.2614 27.4675 21.2611 27.4152 21.2611V21.5111ZM27.5687 21.5121L27.5655 21.7621C28.4408 21.7733 29.1663 21.8849 29.6896 22.0676C30.2278 22.2556 30.4864 22.4941 30.5524 22.7106L30.7915 22.6377L31.0306 22.5648C30.8919 22.1096 30.4307 21.7968 29.8544 21.5956C29.2633 21.3892 28.4798 21.2738 27.5719 21.2622L27.5687 21.5121ZM30.7915 22.6377L30.5524 22.7106C30.5843 22.8151 30.5712 23.0065 30.454 23.2908C30.3405 23.5659 30.1442 23.892 29.8691 24.2427L30.0659 24.397L30.2626 24.5512C30.5567 24.1763 30.7805 23.8106 30.9162 23.4814C31.0482 23.1614 31.1134 22.836 31.0306 22.5647L30.7915 22.6377ZM30.0659 24.397L29.8691 24.2427C28.8921 25.4886 27.3964 26.6293 25.8635 27.47L25.9837 27.6892L26.104 27.9084C27.6751 27.0467 29.2312 25.8664 30.2626 24.5512L30.0659 24.397ZM25.9837 27.6892L26.1685 27.5208C25.1151 26.365 23.4487 25.8658 21.3849 26.0145L21.4028 26.2638L21.4208 26.5132C23.3942 26.3711 24.8846 26.8544 25.799 27.8576L25.9837 27.6892ZM21.4028 26.2638L21.3847 26.0145C20.2253 26.0987 19.4083 26.4243 18.8778 26.8836C18.344 27.3458 18.117 27.93 18.1216 28.4857L18.3716 28.4836L18.6216 28.4815C18.6182 28.0711 18.7831 27.627 19.2051 27.2616C19.6305 26.8933 20.3331 26.5922 21.4209 26.5132L21.4028 26.2638ZM18.3716 28.4836L18.1216 28.4857C18.132 29.715 19.3054 30.9048 21.3232 31.017L21.3371 30.7674L21.351 30.5178C19.4986 30.4148 18.629 29.3592 18.6216 28.4815L18.3716 28.4836ZM21.3371 30.7674L21.3235 31.017C22.5499 31.084 23.9911 30.7071 25.4139 30.0845L25.3137 29.8555L25.2135 29.6265C23.825 30.234 22.4666 30.5787 21.3507 30.5178L21.3371 30.7674ZM25.3137 29.8555L25.0714 29.9173C25.2629 30.6685 25.209 31.6829 24.877 32.9284L25.1186 32.9928L25.3601 33.0572C25.7031 31.7705 25.777 30.6613 25.5559 29.7938L25.3137 29.8555ZM25.1186 32.9928L24.877 32.9284C24.7245 33.5003 25.0645 34.0885 25.637 34.2411L25.7014 33.9995L25.7657 33.758C25.4604 33.6766 25.2787 33.3626 25.3601 33.0572L25.1186 32.9928ZM25.7014 33.9995L25.6369 34.2411C26.2088 34.3936 26.7969 34.0535 26.9497 33.4809L26.7081 33.4165L26.4666 33.352C26.385 33.6579 26.0708 33.8393 25.7658 33.758L25.7014 33.9995ZM26.7081 33.4165L26.9497 33.4809C27.4155 31.7341 27.4592 30.2368 27.0484 29.0267L26.8116 29.107L26.5749 29.1874C26.9425 30.2699 26.9182 31.6584 26.4666 33.3521L26.7081 33.4165ZM26.8116 29.107L26.934 29.325C28.7893 28.2839 30.5142 26.8961 31.5571 25.5666L31.3603 25.4123L31.1636 25.2581C30.1722 26.5221 28.5044 27.8704 26.6893 28.889L26.8116 29.107ZM31.3603 25.4123L31.5571 25.5666C32.5324 24.3229 32.9269 23.1421 32.6045 22.0844L32.3653 22.1574L32.1262 22.2303C32.3787 23.0583 32.0973 24.0676 31.1636 25.2581L31.3603 25.4123ZM32.3653 22.1574L32.6045 22.0844C32.3723 21.3233 31.8272 20.7325 31.0393 20.3229L30.924 20.5447L30.8086 20.7665C31.5024 21.1272 31.9408 21.6223 32.1262 22.2303L32.3653 22.1574ZM30.924 20.5447L31.1739 20.547C31.2021 17.4686 31.4891 14.8736 31.8889 13.0537C32.0891 12.142 32.3152 11.4362 32.5452 10.9639C32.6605 10.727 32.771 10.5613 32.8702 10.4581C32.9709 10.3535 33.0357 10.3375 33.0643 10.3373L33.0628 10.0873L33.0613 9.83735C32.8434 9.83864 32.6581 9.95741 32.5098 10.1115C32.3601 10.2671 32.2226 10.4842 32.0956 10.745C31.8409 11.2682 31.6046 12.0173 31.4005 12.9465C30.9915 14.8084 30.7024 17.4392 30.674 20.5424L30.924 20.5447ZM33.0628 10.0873V10.3373H33.0689V10.0873V9.83735H33.0628V10.0873ZM33.0689 10.0873V10.3373C33.1205 10.3373 33.1728 10.3429 33.2328 10.3663C33.2935 10.39 33.3744 10.437 33.474 10.5359L33.6502 10.3586L33.8264 10.1812C33.6857 10.0414 33.5484 9.95277 33.4147 9.90057C33.2803 9.84806 33.1622 9.83735 33.0689 9.83735V10.0873ZM33.6502 10.3586L33.4739 10.5359C33.8198 10.8797 34.2471 11.6705 34.5836 13.403C34.9182 15.1264 35.1567 17.7466 35.1567 21.7068H35.4067H35.6567C35.6567 17.7308 35.4176 15.0752 35.0744 13.3077C34.733 11.5494 34.2821 10.6342 33.8264 10.1813L33.6502 10.3586ZM35.4067 21.7068H35.1567C35.1567 25.625 34.9868 29.2029 33.81 32.0818C32.6428 34.9373 30.4777 37.1206 26.4292 38.2382L26.4958 38.4792L26.5623 38.7202C30.7544 37.563 33.0448 35.2754 34.2729 32.271C35.4914 29.29 35.6567 25.6191 35.6567 21.7068H35.4067ZM18.6469 20.2154L18.8965 20.2031C18.8966 20.2049 18.8966 20.2052 18.8966 20.2027C18.8967 20.1986 18.8967 20.1979 18.8969 20.1893C18.8971 20.1774 18.8975 20.1523 18.894 20.1235L18.6458 20.1538L18.3977 20.184C18.3967 20.176 18.3971 20.1715 18.397 20.18C18.3969 20.1822 18.3969 20.1838 18.3968 20.187C18.3968 20.1898 18.3967 20.1934 18.3966 20.1973C18.3966 20.2051 18.3966 20.2157 18.3972 20.2277L18.6469 20.2154ZM18.6458 20.1538L18.8941 20.1241C18.8908 20.0969 18.8869 20.0622 18.883 20.0312L18.6349 20.0622L18.3869 20.0932C18.3906 20.123 18.3938 20.1512 18.3976 20.1835L18.6458 20.1538ZM18.6349 20.0622L18.8843 20.0447C18.8261 19.214 18.8475 18.4792 18.944 17.8699C19.0409 17.2576 19.211 16.7895 19.4367 16.4767L19.234 16.3304L19.0312 16.1842C18.7421 16.5849 18.5536 17.1386 18.4501 17.7918C18.3462 18.448 18.3255 19.2224 18.3855 20.0796L18.6349 20.0622ZM19.234 16.3304L19.4366 16.4768C19.6517 16.1789 19.9101 16.0261 20.274 15.9813L20.2435 15.7332L20.213 15.4851C19.7107 15.5468 19.3277 15.7736 19.0313 16.1841L19.234 16.3304ZM20.2435 15.7332L20.2734 15.9814C20.8084 15.9169 21.2234 16.0522 21.5779 16.3927L21.7511 16.2125L21.9243 16.0322C21.4537 15.5801 20.8863 15.4039 20.2136 15.485L20.2435 15.7332ZM21.7511 16.2125L21.5779 16.3927C21.9337 16.7347 22.2332 17.2955 22.4375 18.0105C22.6406 18.7215 22.7438 19.5653 22.7221 20.4516L22.972 20.4577L23.222 20.4638C23.2447 19.5335 23.1369 18.6387 22.9182 17.8732C22.7007 17.1117 22.3675 16.4582 21.9244 16.0322L21.7511 16.2125ZM22.972 20.4577L22.9121 20.215C21.5277 20.5566 20.1098 21.0431 18.7617 21.6699L18.8671 21.8966L18.9725 22.1233C20.2895 21.5109 21.6767 21.0348 23.0319 20.7004L22.972 20.4577ZM18.8671 21.8966L19.1132 21.8527C19.0095 21.2704 18.938 20.7167 18.896 20.1954L18.6469 20.2154L18.3977 20.2355C18.441 20.7737 18.5146 21.3434 18.621 21.9404L18.8671 21.8966ZM25.7333 17.3492L25.9173 17.5184C26.1679 17.2457 26.4848 17.1092 26.9156 17.1092V16.8592V16.6092C26.3604 16.6092 25.9045 16.7935 25.5492 17.18L25.7333 17.3492ZM26.9156 16.8592V17.1092C27.2798 17.1092 27.5265 17.1687 27.6968 17.2414C27.8654 17.3134 27.9712 17.4033 28.049 17.483L28.2279 17.3083L28.4067 17.1337C28.2962 17.0205 28.1376 16.8859 27.8931 16.7815C27.6503 16.6779 27.3349 16.6092 26.9156 16.6092V16.8592ZM28.2279 17.3083L28.049 17.483C28.4274 17.8706 28.6708 18.6772 28.7038 19.9719L28.9538 19.9655L29.2037 19.9592C29.1702 18.6497 28.9285 17.6681 28.4067 17.1337L28.2279 17.3083ZM28.9538 19.9655L28.988 19.7179C28.5555 19.658 28.0907 19.6233 27.5929 19.6171L27.5898 19.8671L27.5866 20.1171C28.0652 20.1231 28.5091 20.1564 28.9195 20.2132L28.9538 19.9655ZM27.5898 19.8671L27.5932 19.6171C27.5361 19.6163 27.4796 19.6161 27.4228 19.6161V19.8661V20.1161C27.4781 20.1161 27.5323 20.1163 27.5863 20.1171L27.5898 19.8671ZM27.4228 19.8661V19.6161C26.6662 19.6161 25.8446 19.6817 24.9899 19.8059L25.0259 20.0533L25.0619 20.3007C25.897 20.1794 26.6942 20.1161 27.4228 20.1161V19.8661ZM25.0259 20.0533L25.2758 20.0457C25.24 18.8767 25.4886 17.9853 25.9174 17.5182L25.7333 17.3492L25.5491 17.1801C24.9889 17.7903 24.7387 18.8435 24.776 20.061L25.0259 20.0533ZM34.8103 9.19152L34.9866 9.01425C34.4501 8.48084 33.7858 8.19178 33.0675 8.19178V8.44178V8.69178C33.6431 8.69178 34.1835 8.92081 34.634 9.3688L34.8103 9.19152ZM33.0675 8.44178V8.19178H33.053V8.44178V8.69178H33.0675V8.44178ZM33.053 8.44178L33.0515 8.19178C31.8157 8.19916 31.0242 9.13144 30.5081 10.2708C29.9883 11.4183 29.7039 12.8639 29.5165 14.082L29.7635 14.1201L30.0106 14.1581C30.1974 12.9448 30.474 11.5577 30.9635 10.4771C31.4567 9.38849 32.1228 8.69734 33.0545 8.69177L33.053 8.44178ZM29.7635 14.1201L29.5164 14.0821C29.4059 14.8015 29.3206 15.5347 29.2543 16.2432L29.5032 16.2665L29.7521 16.2898C29.8178 15.5887 29.9019 14.8655 30.0106 14.158L29.7635 14.1201ZM29.5032 16.2665L29.6896 16.0999C29.663 16.0701 29.6232 16.0237 29.5843 15.9839L29.4055 16.1587L29.2268 16.3335C29.2554 16.3627 29.279 16.3909 29.3169 16.4332L29.5032 16.2665ZM29.4055 16.1587L29.5844 15.9841C28.9167 15.3 28.0095 14.9638 26.9158 14.9638V15.2138V15.4638C27.902 15.4638 28.6704 15.7635 29.2266 16.3333L29.4055 16.1587ZM26.9158 15.2138V14.9638C25.8975 14.9638 25.0015 15.3436 24.3375 16.0668L24.5217 16.2358L24.7058 16.4049C25.2699 15.7905 26.0297 15.4638 26.9158 15.4638V15.2138ZM24.5217 16.2358L24.3375 16.0668C24.1461 16.2754 23.9852 16.513 23.8433 16.7602L24.0602 16.8846L24.277 17.009C24.4071 16.7822 24.5472 16.5778 24.7059 16.4049L24.5217 16.2358ZM24.0602 16.8846L24.2938 16.7958C24.0134 16.0579 23.6165 15.3768 23.0646 14.8459L22.8913 15.0261L22.718 15.2063C23.2027 15.6725 23.5644 16.2839 23.8265 16.9734L24.0602 16.8846ZM22.8913 15.0261L23.0645 14.8458C22.2381 14.0518 21.1783 13.7085 20.0122 13.8519L20.0427 14.1L20.0732 14.3481C21.0953 14.2225 22.0039 14.5202 22.7181 15.2064L22.8913 15.0261ZM20.0427 14.1L20.0122 13.8519C19.0615 13.9687 18.258 14.4435 17.6968 15.221L17.8996 15.3673L18.1023 15.5136C18.5819 14.849 19.2606 14.448 20.0732 14.3481L20.0427 14.1ZM17.8996 15.3673L17.6866 15.2363C17.6843 15.2401 17.6825 15.2433 17.6818 15.2444C17.6807 15.2463 17.6814 15.2452 17.6819 15.2443C17.6826 15.2431 17.6845 15.24 17.6872 15.2359C17.69 15.2317 17.6943 15.2257 17.7 15.2187L17.8935 15.377L18.087 15.5353C18.1 15.5194 18.1085 15.5052 18.1114 15.5004C18.1122 15.4989 18.113 15.4976 18.1134 15.4968C18.1137 15.4964 18.1139 15.496 18.114 15.4958C18.1142 15.4955 18.1142 15.4954 18.1143 15.4953C18.1147 15.4947 18.1138 15.4962 18.1125 15.4984L17.8996 15.3673ZM17.8935 15.377L18.1386 15.3278C17.6867 13.074 17.0279 10.5676 16.0987 8.65805C15.6344 7.70376 15.0947 6.88176 14.4656 6.31585C13.8319 5.74572 13.0967 5.42738 12.2619 5.51408L12.2878 5.76274L12.3136 6.0114C12.974 5.94282 13.5744 6.18663 14.1312 6.68757C14.6928 7.19273 15.1985 7.95071 15.6491 8.87681C16.5499 10.728 17.1988 13.1841 17.6483 15.4261L17.8935 15.377ZM12.2878 5.76274L12.2616 5.51411C11.4466 5.59982 10.7361 6.03934 10.2063 6.75936L10.4077 6.90753L10.6091 7.05569C11.0672 6.43302 11.6573 6.08042 12.3139 6.01137L12.2878 5.76274ZM10.4077 6.90753L10.2063 6.75939C9.59356 7.59238 9.22093 8.8114 9.01156 10.2192C8.80132 11.6329 8.75182 13.2655 8.8059 14.9491C8.91406 18.3167 9.43766 21.916 9.94104 24.4334L10.1862 24.3843L10.4313 24.3353C9.93176 21.8371 9.41269 18.266 9.30564 14.9331C9.25211 13.2664 9.30186 11.6662 9.50612 10.2927C9.71127 8.91331 10.0684 7.79067 10.6091 7.05566L10.4077 6.90753ZM10.1862 24.3843L9.94107 24.4335C10.0433 24.9433 10.4908 25.296 10.992 25.296V25.046V24.796C10.7249 24.796 10.4859 24.6074 10.4313 24.3352L10.1862 24.3843ZM10.992 25.046V25.296C11.0622 25.296 11.1329 25.2891 11.2034 25.2749L11.1544 25.0298L11.1054 24.7847C11.0668 24.7924 11.0289 24.796 10.992 24.796V25.046ZM11.1544 25.0298L11.2034 25.2749C11.7841 25.1588 12.1609 24.5937 12.0448 24.0129L11.7996 24.0619L11.5545 24.1109C11.6165 24.421 11.4152 24.7227 11.1054 24.7847L11.1544 25.0298ZM11.7996 24.0619L12.0447 24.0128C11.2077 19.8276 10.8838 16.2214 10.9221 13.4576C10.9412 12.0754 11.0508 10.9084 11.2302 9.98749C11.411 9.05978 11.6579 8.4067 11.9345 8.03073L11.7331 7.88258L11.5318 7.73442C11.1892 8.20005 10.9248 8.9404 10.7395 9.89189C10.5528 10.8501 10.4415 12.0482 10.4221 13.4506C10.3833 16.2561 10.7119 19.898 11.5545 24.1109L11.7996 24.0619ZM11.7331 7.88258L11.9345 8.03073C12.0626 7.85663 12.1754 7.76636 12.2629 7.71741C12.3491 7.66921 12.4229 7.65421 12.486 7.64764L12.46 7.39898L12.4341 7.15033C12.3244 7.16177 12.1802 7.19079 12.0189 7.281C11.8589 7.37045 11.6947 7.51297 11.5318 7.73442L11.7331 7.88258ZM12.46 7.39898L12.4859 7.64764C12.613 7.63442 12.7651 7.67516 12.9476 7.80699C13.1314 7.9398 13.3308 8.1547 13.5399 8.45687C13.9579 9.06085 14.3849 9.96951 14.7927 11.1256C15.607 13.4339 16.3267 16.6766 16.7544 20.3036L17.0027 20.2743L17.2509 20.245C16.8203 16.5925 16.094 13.3117 15.2642 10.9593C14.85 9.78496 14.4055 8.82896 13.9511 8.17234C13.724 7.84422 13.487 7.57984 13.2403 7.40167C12.9923 7.22253 12.7197 7.12061 12.4342 7.15033L12.46 7.39898ZM17.0027 20.2743L16.7534 20.2933C16.8231 21.2073 16.9613 22.0618 17.0945 22.7252L17.3396 22.676L17.5847 22.6268C17.4545 21.978 17.3197 21.1442 17.2519 20.2553L17.0027 20.2743ZM17.3396 22.676L17.093 22.7171C17.0954 22.7316 17.0986 22.7431 17.1008 22.7504C17.1019 22.754 17.1029 22.7571 17.1035 22.759C17.1041 22.7609 17.1047 22.7625 17.1047 22.7626C17.1049 22.7632 17.1046 22.7623 17.1043 22.7612C17.1039 22.76 17.1031 22.7577 17.1022 22.7548C17.1005 22.749 17.0977 22.7389 17.0955 22.726L17.3421 22.6849L17.5887 22.6438C17.5863 22.6294 17.5832 22.6178 17.581 22.6106C17.5799 22.6069 17.5789 22.6039 17.5782 22.6019C17.5776 22.6001 17.577 22.5985 17.577 22.5983C17.5768 22.5977 17.5771 22.5986 17.5775 22.5997C17.5779 22.601 17.5786 22.6032 17.5795 22.6062C17.5813 22.612 17.584 22.622 17.5862 22.6349L17.3396 22.676ZM17.3421 22.6849L17.2173 22.4683C14.7176 23.9092 12.62 25.8983 11.7816 28.4141L12.0188 28.4931L12.256 28.5721C13.0405 26.218 15.0227 24.3104 17.467 22.9015L17.3421 22.6849ZM12.0188 28.4931L11.7817 28.414C10.7742 31.4356 11.5667 34.6001 13.9261 37.0867L14.1074 36.9146L14.2888 36.7425C12.0432 34.3759 11.3128 31.4009 12.256 28.5722L12.0188 28.4931ZM14.1074 36.9146L13.9261 37.0867C16.2272 39.5114 19.6125 40.8286 23.1536 40.8286V40.5786V40.3286C19.7316 40.3286 16.4837 39.0553 14.2888 36.7425L14.1074 36.9146ZM23.1536 40.5786L23.1537 40.8286C24.4285 40.8283 25.7253 40.6576 27.0001 40.3058L26.9335 40.0648L26.867 39.8238C25.636 40.1636 24.384 40.3283 23.1536 40.3286L23.1536 40.5786ZM26.9335 40.0648L27.0001 40.3058C31.7437 38.9965 34.3354 36.4062 35.7277 33.0912C37.1109 29.7978 37.3022 25.8063 37.3022 21.7066H37.0522H36.8022C36.8022 25.8093 36.6066 29.7073 35.2667 32.8976C33.9358 36.0662 31.4682 38.5538 26.867 39.8238L26.9335 40.0648ZM37.0522 21.7066H37.3022C37.3022 18.1916 37.1239 15.4261 36.7509 13.3434C36.3795 11.2704 35.8082 9.83108 34.9866 9.01423L34.8103 9.19152L34.634 9.36881C35.3419 10.0725 35.8915 11.3817 36.2587 13.4316C36.6242 15.4719 36.8022 18.2036 36.8022 21.7066H37.0522Z" fill="#0A0A0A" mask="url(#path-2-outside-1_385_6523)"/>
</svg>
